<svg width="894" height="581" viewBox="0 0 894 581" fill="none" xmlns="http://www.w3.org/2000/svg">
<g clip-path="url(#clip0_2005_8)">
<path d="M1375 -256H-545V824H1375V-256Z" fill="black"/>
<mask id="mask0_2005_8" style="mask-type:luminance" maskUnits="userSpaceOnUse" x="-545" y="-256" width="1920" height="1080">
<path d="M1375 -256H-545V824H1375V-256Z" fill="white"/>
</mask>
<g mask="url(#mask0_2005_8)">
<path d="M582.69 223.51C581.64 223.6 580.58 223.7 579.52 223.81C578.95 223.87 578.37 223.93 577.8 223.99C561.1 225.72 544.13 228.57 527.17 233.42H302.83C289.51 229.61 276.19 227.04 263 225.27C263.09 225.14 263.23 224.94 263.41 224.68C266.69 219.91 283.05 194.91 283.12 194.41C283.57 191.52 275.39 187.3 274.16 184.39H293.03L296.15 190.33L297.74 190.29C317.92 182.26 338.06 173.88 358.48 166.47C383.52 157.4 404.69 156.15 431.48 157.99C449.72 159.25 471.47 170.61 488.21 178.22C492.69 180.26 502.48 186.45 506.35 187.24C510.97 188.19 518.87 187.64 524.2 188.26C540.96 190.2 565.37 194.9 578.5 205.63C579.97 206.84 581.18 216.87 582.69 223.51Z" fill="white"/>
</g>
<mask id="mask1_2005_8" style="mask-type:luminance" maskUnits="userSpaceOnUse" x="-545" y="-256" width="1920" height="1080">
<path d="M1375 -256H-545V824H1375V-256Z" fill="white"/>
</mask>
<g mask="url(#mask1_2005_8)">
<path d="M585.022 229.35C584.182 228.94 583.462 226.82 582.802 223.99C582.762 223.83 582.732 223.67 582.692 223.51C581.182 216.87 579.972 206.84 578.502 205.63C565.372 194.9 540.962 190.2 524.202 188.26C518.872 187.64 510.972 188.19 506.352 187.24C502.482 186.45 492.692 180.26 488.212 178.22C471.472 170.61 449.722 159.25 431.482 157.99C404.692 156.15 383.522 157.4 358.482 166.47C338.062 173.88 317.922 182.26 297.742 190.29L296.152 190.33L293.032 184.39H274.162C275.392 187.3 283.572 191.52 283.122 194.41C283.052 194.91 266.692 219.91 263.412 224.68C263.232 224.94 263.092 225.14 263.002 225.27C262.932 225.36 262.882 225.43 262.862 225.45C260.332 228.14 254.422 230.25 251.502 232.95C250.382 232.37 251.672 231.14 252.042 230.48C252.642 229.41 254.022 227.2 255.822 224.38C255.932 224.21 256.032 224.05 256.142 223.88C262.212 214.41 272.632 198.69 274.782 195.33L254.552 176.85L295.672 177.6L300.172 181.36L308.892 177.95L262.102 101.39L280.152 109.01C279.682 111.92 278.442 122.77 280.182 124.43C293.052 130.23 306.872 136.14 320.792 138.9C363.372 147.33 394.582 131.45 415.112 94.08C416.132 92.23 417.902 89.69 417.392 87.63C416.562 84.27 405.462 72.49 405.462 70.08L421.682 45.55C422.802 45.4 423.272 46.42 423.882 47.13C425.682 49.22 439.152 68.7 439.162 70.08C437.672 73.82 426.892 85.5 427.652 88.57C428.402 91.64 438.642 105.06 441.282 108.19C470.302 142.72 505.852 146.25 547.132 131.78C549.682 130.88 564.282 125.29 565.042 124.04L564.752 109.03L582.762 101.39L551.222 150.96C546.942 160.57 538.272 170.63 534.312 180.08C533.922 181.02 533.522 181.81 533.722 182.88C542.652 184.88 553.332 185.61 561.982 188.21C564.702 189.02 581.472 198.52 582.372 200.25L584.482 223.35L584.522 223.81L585.022 229.35Z" fill="#C4A156"/>
</g>
<path d="M350.13 214.444V179.516H357.897V214.444H350.13ZM356.067 214.444V207.716H375.213V214.444H356.067ZM356.067 199.85V193.369H373.481V199.85H356.067ZM356.067 186.195V179.516H374.966V186.195H356.067ZM380.568 214.444V179.516H388.335V214.444H380.568ZM386.554 214.444V207.617H403.82V214.444H386.554ZM408.3 214.444V179.516H416.067V214.444H408.3ZM431.353 214.444V180.011H439.12V214.444H431.353ZM420.419 186.294V179.516H450.054V186.294H420.419ZM454.391 214.444V179.516H462.159V214.444H454.391ZM460.328 214.444V207.716H479.474V214.444H460.328ZM460.328 199.85V193.369H477.743V199.85H460.328ZM460.328 186.195V179.516H479.227V186.195H460.328Z" fill="black"/>
<mask id="mask2_2005_8" style="mask-type:luminance" maskUnits="userSpaceOnUse" x="66" y="180" width="339" height="251">
<path d="M143.451 268.4C178.051 275.06 200.211 276.11 221.361 277.12C228.981 277.49 236.481 277.85 244.371 278.46C281.431 281.34 310.021 291 329.051 306.99C329.051 306.99 291.461 288.98 221.361 288.06C216.471 287.99 211.421 288.01 206.221 288.12C145.101 289.45 111.401 281.69 95.7307 267.28C95.7307 267.28 97.0608 314.27 159.591 328.22C175.601 331.79 197.861 331.92 221.361 331.28C234.171 330.93 247.341 330.36 260.071 329.99C291.241 329.1 337.851 334.96 358.301 355.73C357.391 355.24 324.971 337.87 263.651 341.51C247.111 342.5 233.311 343.72 221.361 344.8C192.911 347.34 175.011 349.02 155.931 344.49C155.931 344.49 192.751 383.65 253.691 384.44C266.891 384.61 280.111 379.04 290.361 378.61C333.111 376.82 351.561 377.33 375.081 387.92C364.171 385.59 335.521 386.01 288.241 393.24C265.361 396.73 246.411 399.88 229.811 394.57C229.811 394.57 262.541 431.54 323.481 430.86C355.851 430.49 378.411 427.41 398.431 425.96C400.951 413.96 401.851 402.17 402.051 392.55C402.181 392.6 402.291 392.64 402.421 392.69C402.421 392.69 405.481 377.91 404.481 357.16C402.751 320.73 388.531 265.91 323.401 240.36C316.561 237.68 309.701 235.38 302.831 233.42C289.511 229.61 276.191 227.04 263.001 225.27C261.471 225.06 259.941 224.87 258.411 224.68C257.551 224.58 256.681 224.48 255.821 224.38C254.261 224.2 252.701 224.03 251.141 223.88C173.961 216.05 102.801 231.45 66.6508 180.66C66.6508 180.66 57.9008 251.92 143.451 268.4Z" fill="white"/>
</mask>
<g mask="url(#mask2_2005_8)">
<path d="M405.478 180.66H57.8984V431.54H405.478V180.66Z" fill="url(#paint0_linear_2005_8)"/>
</g>
<mask id="mask3_2005_8" style="mask-type:luminance" maskUnits="userSpaceOnUse" x="-545" y="-256" width="1920" height="1080">
<path d="M1375 -256H-545V824H1375V-256Z" fill="white"/>
</mask>
<g mask="url(#mask3_2005_8)">
<path d="M259.781 408.3C262.831 410.08 266.201 411.11 269.571 412.05C272.951 412.96 276.381 413.69 279.831 414.31C286.691 415.5 293.761 416.48 300.501 416.66L300.171 421.64C292.871 420.57 286.091 418.76 279.251 416.73C275.851 415.7 272.491 414.55 269.191 413.23C265.901 411.89 262.611 410.44 259.781 408.3Z" fill="white"/>
</g>
<mask id="mask4_2005_8" style="mask-type:luminance" maskUnits="userSpaceOnUse" x="425" y="180" width="339" height="251">
<path d="M584.481 223.35C583.891 223.4 583.291 223.45 582.691 223.51C581.641 223.6 580.581 223.7 579.521 223.81C578.951 223.87 578.371 223.93 577.801 223.99C561.101 225.72 544.131 228.57 527.171 233.42C520.301 235.38 513.441 237.68 506.601 240.36C441.461 265.91 427.251 320.74 425.521 357.17C424.521 377.92 427.581 392.69 427.581 392.69C427.711 392.64 427.821 392.6 427.951 392.55C428.151 402.17 429.051 413.96 431.571 425.96C451.591 427.41 474.151 430.49 506.521 430.86C567.461 431.54 600.191 394.57 600.191 394.57C583.591 399.88 564.641 396.73 541.761 393.24C494.481 386.01 465.831 385.59 454.921 387.92C478.191 377.44 497.781 377.78 539.611 379.61C550.191 380.07 562.521 384.61 576.311 384.44C637.251 383.65 674.071 344.49 674.071 344.49C654.901 349.04 636.911 347.33 608.211 344.76C596.371 343.69 582.691 342.48 566.351 341.51C505.031 337.87 472.611 355.24 471.701 355.73C492.151 334.96 538.761 329.1 569.931 329.99C582.521 330.36 595.541 330.92 608.211 331.27C631.871 331.92 654.301 331.81 670.411 328.22C732.941 314.27 734.271 267.28 734.271 267.28C718.601 281.69 684.901 289.45 623.781 288.12C618.421 288 613.231 287.99 608.211 288.06C538.381 289.06 500.951 306.99 500.951 306.99C519.981 291 548.571 281.34 585.631 278.46C593.381 277.86 600.731 277.5 608.211 277.14C629.491 276.12 651.721 275.1 686.551 268.4C772.101 251.92 763.351 180.66 763.351 180.66C728.081 230.21 659.481 216.76 584.481 223.35Z" fill="white"/>
</mask>
<g mask="url(#mask4_2005_8)">
<path d="M772.103 180.66H424.523V431.54H772.103V180.66Z" fill="url(#paint1_linear_2005_8)"/>
</g>
<mask id="mask5_2005_8" style="mask-type:luminance" maskUnits="userSpaceOnUse" x="-545" y="-256" width="1920" height="1080">
<path d="M1375 -256H-545V824H1375V-256Z" fill="white"/>
</mask>
<g mask="url(#mask5_2005_8)">
<path d="M571.741 408.3C568.921 410.44 565.621 411.89 562.341 413.23C559.041 414.55 555.671 415.7 552.281 416.73C545.441 418.76 538.661 420.57 531.361 421.64L531.031 416.66C537.771 416.48 544.831 415.5 551.691 414.31C555.141 413.69 558.561 412.96 561.951 412.05C565.311 411.12 568.681 410.09 571.741 408.3Z" fill="white"/>
</g>
<mask id="mask6_2005_8" style="mask-type:luminance" maskUnits="userSpaceOnUse" x="-545" y="-256" width="1920" height="1080">
<path d="M1375 -256H-545V824H1375V-256Z" fill="white"/>
</mask>
<g mask="url(#mask6_2005_8)">
<path d="M413.672 522.46L413.122 522.22C412.662 522.08 412.222 521.88 411.802 521.63C308.162 475 270.962 386.28 258.002 320.03C252.122 289.95 250.522 261.98 250.692 239.48C349.742 237.7 525.212 239.03 578.842 235.94C579.202 259.02 577.762 288.36 571.572 320.03C558.612 386.28 521.402 475 417.762 521.63C417.342 521.88 416.912 522.08 416.452 522.22L415.922 522.46C415.922 522.46 414.872 522.47 414.832 522.47H413.672V522.46Z" fill="white"/>
</g>
<mask id="mask7_2005_8" style="mask-type:luminance" maskUnits="userSpaceOnUse" x="-545" y="-256" width="1920" height="1080">
<path d="M1375 -256H-545V824H1375V-256Z" fill="white"/>
</mask>
<g mask="url(#mask7_2005_8)">
<path d="M553.151 367.19C532.491 424.78 492.071 482.51 415.141 516.97C415.141 516.97 414.901 517.2 414.781 517.14C414.661 517.19 414.421 516.97 414.421 516.97C337.491 482.51 297.071 424.79 276.411 367.19C258.551 317.5 255.381 267.91 256.141 233.42H573.431C574.181 267.91 571.011 317.5 553.151 367.19Z" fill="black"/>
</g>
<mask id="mask8_2005_8" style="mask-type:luminance" maskUnits="userSpaceOnUse" x="-545" y="-256" width="1920" height="1080">
<path d="M1375 -256H-545V824H1375V-256Z" fill="white"/>
</mask>
<g mask="url(#mask8_2005_8)">
<path d="M539.953 315.48C536.523 332.56 531.943 348.61 526.203 363.64C504.823 419.63 467.523 461.23 414.783 487.73C362.063 461.23 324.743 419.64 303.383 363.64C297.643 348.61 293.063 332.56 289.633 315.48C283.433 284.53 282.263 255.55 282.793 233.42H546.803C547.313 255.55 546.153 284.54 539.953 315.48Z" fill="#F4F5F5"/>
</g>
<mask id="mask9_2005_8" style="mask-type:luminance" maskUnits="userSpaceOnUse" x="-545" y="-256" width="1920" height="1080">
<path d="M1375 -256H-545V824H1375V-256Z" fill="white"/>
</mask>
<g mask="url(#mask9_2005_8)">
<path d="M539.953 315.48C536.523 332.56 531.943 348.61 526.203 363.64C504.823 419.63 467.523 461.23 414.783 487.73C362.063 461.23 324.743 419.64 303.383 363.64C297.643 348.61 293.063 332.56 289.633 315.48C283.433 284.53 282.263 255.55 282.793 233.42H546.803C547.313 255.55 546.153 284.54 539.953 315.48Z" fill="white"/>
</g>
<mask id="mask10_2005_8" style="mask-type:luminance" maskUnits="userSpaceOnUse" x="-545" y="-256" width="1920" height="1080">
<path d="M1375 -256H-545V824H1375V-256Z" fill="white"/>
</mask>
<g mask="url(#mask10_2005_8)">
<path d="M724.391 246.79C715.671 252.59 705.541 255.9 695.471 258.6C685.331 261.24 675.021 263.11 664.671 264.64C643.951 267.66 623.071 269.34 602.161 270.33L602.031 265.34C622.831 265.19 643.661 264.35 664.351 262.17C674.691 261.06 685.011 259.61 695.181 257.39C705.291 255.1 715.441 252.23 724.391 246.79Z" fill="white"/>
</g>
<mask id="mask11_2005_8" style="mask-type:luminance" maskUnits="userSpaceOnUse" x="-545" y="-256" width="1920" height="1080">
<path d="M1375 -256H-545V824H1375V-256Z" fill="white"/>
</mask>
<g mask="url(#mask11_2005_8)">
<path d="M692.15 313.81C685.88 317.5 678.67 319.31 671.55 320.64C664.39 321.95 657.15 322.76 649.89 323.29C635.37 324.32 620.81 324.42 606.25 323.94L606.57 318.96C620.92 320.27 635.35 321 649.78 320.8C656.99 320.68 664.2 320.3 671.36 319.41C678.49 318.49 685.68 317.13 692.15 313.81Z" fill="white"/>
</g>
<mask id="mask12_2005_8" style="mask-type:luminance" maskUnits="userSpaceOnUse" x="-545" y="-256" width="1920" height="1080">
<path d="M1375 -256H-545V824H1375V-256Z" fill="white"/>
</mask>
<g mask="url(#mask12_2005_8)">
<path d="M641.141 359.84C638.761 361.78 635.931 363.09 633.131 364.33C630.311 365.55 627.421 366.62 624.501 367.6C618.611 369.51 612.811 371.27 606.341 372.13L606.141 367.14C611.821 367.17 617.971 366.25 623.871 365.18C626.841 364.61 629.791 363.96 632.711 363.15C635.611 362.31 638.531 361.42 641.141 359.84Z" fill="white"/>
</g>
<mask id="mask13_2005_8" style="mask-type:luminance" maskUnits="userSpaceOnUse" x="-545" y="-256" width="1920" height="1080">
<path d="M1375 -256H-545V824H1375V-256Z" fill="white"/>
</mask>
<g mask="url(#mask13_2005_8)">
<path d="M107.133 246.79C116.083 252.23 126.233 255.11 136.343 257.39C146.513 259.61 156.823 261.06 167.173 262.17C187.873 264.35 208.693 265.2 229.493 265.34L229.363 270.33C208.453 269.35 187.573 267.66 166.853 264.64C156.503 263.1 146.183 261.24 136.053 258.6C125.983 255.9 115.853 252.59 107.133 246.79Z" fill="white"/>
</g>
<mask id="mask14_2005_8" style="mask-type:luminance" maskUnits="userSpaceOnUse" x="-545" y="-256" width="1920" height="1080">
<path d="M1375 -256H-545V824H1375V-256Z" fill="white"/>
</mask>
<g mask="url(#mask14_2005_8)">
<path d="M139.367 313.81C145.837 317.13 153.027 318.49 160.157 319.41C167.317 320.3 174.527 320.68 181.737 320.8C196.167 321 210.597 320.27 224.947 318.96L225.267 323.94C210.707 324.42 196.147 324.33 181.627 323.29C174.367 322.76 167.127 321.95 159.967 320.64C152.847 319.3 145.637 317.5 139.367 313.81Z" fill="white"/>
</g>
<mask id="mask15_2005_8" style="mask-type:luminance" maskUnits="userSpaceOnUse" x="-545" y="-256" width="1920" height="1080">
<path d="M1375 -256H-545V824H1375V-256Z" fill="white"/>
</mask>
<g mask="url(#mask15_2005_8)">
<path d="M190.383 359.84C192.993 361.43 195.913 362.32 198.813 363.16C201.733 363.97 204.683 364.63 207.653 365.19C213.553 366.27 219.693 367.18 225.383 367.15L225.183 372.14C218.713 371.27 212.913 369.52 207.023 367.61C204.103 366.63 201.223 365.56 198.393 364.34C195.593 363.09 192.763 361.77 190.383 359.84Z" fill="white"/>
</g>
<mask id="mask16_2005_8" style="mask-type:luminance" maskUnits="userSpaceOnUse" x="-545" y="-256" width="1920" height="1080">
<path d="M1375 -256H-545V824H1375V-256Z" fill="white"/>
</mask>
<g mask="url(#mask16_2005_8)">
<path d="M582.482 388.92C522.672 376.49 475.422 364.41 414.782 364.41C356.332 364.41 302.862 376.95 245.162 388.92C242.822 388.18 229.212 383.27 221.352 377.95C221.352 333.5 221.352 283.98 221.352 240.74H608.212V377.73C602.422 380.94 594.782 384.6 582.482 388.92Z" fill="black"/>
</g>
<mask id="mask17_2005_8" style="mask-type:luminance" maskUnits="userSpaceOnUse" x="-545" y="-256" width="1920" height="1080">
<path d="M1375 -256H-545V824H1375V-256Z" fill="white"/>
</mask>
<g mask="url(#mask17_2005_8)">
<path d="M608.209 233.42V376.92C589.939 373.14 571.569 369.89 553.149 367.19C544.179 365.87 535.189 364.69 526.199 363.64C492.749 359.7 459.149 357.54 425.519 357.17C418.509 357.08 411.499 357.08 404.479 357.16C370.709 357.52 336.959 359.68 303.369 363.64C294.369 364.69 285.389 365.87 276.409 367.19C257.999 369.89 239.629 373.14 221.359 376.92V233.42H608.209Z" fill="white"/>
</g>
<mask id="mask18_2005_8" style="mask-type:luminance" maskUnits="userSpaceOnUse" x="-545" y="-256" width="1920" height="1080">
<path d="M1375 -256H-545V824H1375V-256Z" fill="white"/>
</mask>
<g mask="url(#mask18_2005_8)">
<path d="M521.642 232.3L308.102 233.42C319.182 231.49 330.472 229.64 341.692 228.52C389.462 223.74 444.112 223.85 491.832 228.52C501.812 229.5 511.672 231.39 521.642 232.3Z" fill="black"/>
</g>
<mask id="mask19_2005_8" style="mask-type:luminance" maskUnits="userSpaceOnUse" x="-545" y="-256" width="1920" height="1080">
<path d="M1375 -256H-545V824H1375V-256Z" fill="white"/>
</mask>
<g mask="url(#mask19_2005_8)">
<path d="M231.531 346.97C231.531 318.18 231.531 289.38 231.531 260.58C240.081 259.63 244.361 259.19 252.921 258.36C252.921 287.16 252.921 315.95 252.921 344.75C244.361 345.58 240.081 346.03 231.531 346.97ZM248.781 345.16V328.95C255.981 328.23 259.581 327.89 266.781 327.25C270.191 326.95 272.881 325.76 274.871 323.69C276.861 321.61 277.851 319.04 277.851 315.95C277.851 313.92 277.401 312.15 276.511 310.64C275.621 309.13 274.341 308.02 272.681 307.31C271.021 306.6 269.051 306.34 266.781 306.55C259.581 307.19 255.981 307.53 248.781 308.25V292.53C255.441 291.86 258.771 291.55 265.441 290.95C268.281 290.69 270.611 289.78 272.441 288.2C274.261 286.62 275.181 284.33 275.181 281.33C275.181 278.33 274.271 276.19 272.441 274.92C270.611 273.66 268.281 273.15 265.441 273.4C258.771 274 255.441 274.32 248.781 274.98V258.77C257.531 257.89 261.911 257.49 270.671 256.73C276.031 256.26 280.671 256.9 284.611 258.62C288.541 260.34 291.571 262.84 293.681 266.1C295.791 269.36 296.851 273.14 296.851 277.45C296.851 283.22 294.881 288.13 290.941 292.2C287.001 296.27 281.301 299.04 273.841 300.57C273.841 297.65 273.841 296.18 273.841 293.26C282.121 293.53 288.451 295.71 292.831 299.74C297.211 303.77 299.411 309.08 299.411 315.66C299.411 320.53 298.191 324.94 295.761 328.89C293.321 332.84 289.891 336.08 285.471 338.62C281.051 341.16 275.831 342.68 269.831 343.2C261.401 343.92 257.201 344.32 248.781 345.16Z" fill="black"/>
</g>
<mask id="mask20_2005_8" style="mask-type:luminance" maskUnits="userSpaceOnUse" x="-545" y="-256" width="1920" height="1080">
<path d="M1375 -256H-545V824H1375V-256Z" fill="white"/>
</mask>
<g mask="url(#mask20_2005_8)">
<path d="M304.523 340.52V254.13C313.243 253.55 317.613 253.29 326.333 252.82V339.21C317.613 339.67 313.253 339.93 304.523 340.52ZM321.833 339.45V320.69C335.733 319.96 349.623 319.35 363.533 318.86V337.62C349.623 338.11 335.723 338.72 321.833 339.45Z" fill="black"/>
</g>
<mask id="mask21_2005_8" style="mask-type:luminance" maskUnits="userSpaceOnUse" x="-545" y="-256" width="1920" height="1080">
<path d="M1375 -256H-545V824H1375V-256Z" fill="white"/>
</mask>
<g mask="url(#mask21_2005_8)">
<path d="M359.008 337.77C370.158 308.69 381.338 279.63 392.558 250.57C400.998 250.45 405.228 250.42 413.668 250.4C424.758 279.27 435.828 308.16 446.858 337.06C437.728 336.9 433.168 336.84 424.038 336.8C415.718 312.61 407.378 288.43 399.018 264.26C402.188 264.23 403.778 264.21 406.948 264.2C398.388 288.51 389.848 312.83 381.328 337.16C372.408 337.34 367.938 337.47 359.008 337.77ZM379.388 322.09V304.79C395.288 304.45 411.198 304.3 427.098 304.41V321.71C411.188 321.6 395.288 321.75 379.388 322.09Z" fill="black"/>
</g>
<mask id="mask22_2005_8" style="mask-type:luminance" maskUnits="userSpaceOnUse" x="-545" y="-256" width="1920" height="1080">
<path d="M1375 -256H-545V824H1375V-256Z" fill="white"/>
</mask>
<g mask="url(#mask22_2005_8)">
<path d="M486.388 339.58C479.798 339.31 473.708 337.98 468.088 335.57C462.478 333.17 457.578 329.91 453.388 325.8C449.198 321.69 445.948 316.9 443.628 311.42C441.308 305.94 440.148 300.04 440.148 293.7C440.148 287.28 441.308 281.39 443.628 276.02C445.948 270.66 449.198 266.02 453.388 262.13C457.578 258.24 462.458 255.24 468.028 253.13C473.598 251.03 479.638 250.1 486.138 250.37C492.968 250.65 499.108 252.02 504.548 254.46C509.988 256.9 514.788 260.16 518.928 264.23C513.078 269.72 510.158 272.48 504.298 278.03C502.268 275.65 499.748 273.73 496.738 272.29C493.728 270.85 490.198 270.04 486.128 269.87C482.628 269.73 479.438 270.17 476.558 271.21C473.668 272.24 471.168 273.85 469.058 276.02C466.938 278.19 465.298 280.8 464.118 283.85C462.938 286.9 462.348 290.34 462.348 294.16C462.348 297.98 462.938 301.45 464.118 304.57C465.298 307.69 466.948 310.4 469.058 312.7C471.168 315 473.678 316.79 476.558 318.07C479.438 319.35 482.638 320.06 486.128 320.21C490.188 320.38 493.768 319.91 496.858 318.8C499.948 317.69 502.588 316.02 504.778 313.77C510.628 319.93 513.558 323.02 519.408 329.22C515.188 332.78 510.408 335.47 505.088 337.3C499.778 339.12 493.538 339.87 486.388 339.58Z" fill="black"/>
</g>
<mask id="mask23_2005_8" style="mask-type:luminance" maskUnits="userSpaceOnUse" x="-545" y="-256" width="1920" height="1080">
<path d="M1375 -256H-545V824H1375V-256Z" fill="white"/>
</mask>
<g mask="url(#mask23_2005_8)">
<path d="M522.711 340.14V253.75C531.431 254.3 535.791 254.6 544.511 255.27C544.511 284.06 544.511 312.86 544.511 341.66C535.801 340.99 531.431 340.69 522.711 340.14ZM575.061 344.26C564.231 328.28 553.361 312.34 542.441 296.42C552.831 283.5 563.251 270.6 573.721 257.75C584.331 258.74 589.631 259.28 600.221 260.44C588.301 274.17 576.431 287.95 564.601 301.76V294.09C576.981 311.68 589.301 329.31 601.561 346.98C590.961 345.8 585.661 345.26 575.061 344.26Z" fill="black"/>
</g>
<path d="M381.556 430.034C378.46 430.034 375.58 429.505 372.915 428.447C370.29 427.349 367.978 425.821 365.979 423.862C364.02 421.902 362.491 419.629 361.394 417.043C360.297 414.417 359.748 411.596 359.748 408.578C359.748 405.561 360.297 402.759 361.394 400.173C362.491 397.547 364.02 395.274 365.979 393.354C367.938 391.434 370.231 389.944 372.857 388.886C375.521 387.789 378.402 387.241 381.497 387.241C384.789 387.241 387.709 387.77 390.256 388.828C392.842 389.886 395.096 391.336 397.016 393.177L390.844 399.408C389.747 398.233 388.414 397.312 386.847 396.646C385.318 395.979 383.535 395.646 381.497 395.646C379.695 395.646 378.029 395.96 376.501 396.587C375.012 397.175 373.719 398.037 372.621 399.173C371.563 400.31 370.721 401.681 370.094 403.288C369.506 404.895 369.212 406.658 369.212 408.578C369.212 410.538 369.506 412.321 370.094 413.927C370.721 415.534 371.563 416.906 372.621 418.042C373.719 419.179 375.012 420.06 376.501 420.687C378.029 421.314 379.695 421.628 381.497 421.628C383.614 421.628 385.455 421.295 387.023 420.629C388.59 419.962 389.942 419.041 391.079 417.866L397.31 424.097C395.311 425.939 393.019 427.389 390.432 428.447C387.885 429.505 384.926 430.034 381.556 430.034ZM398.243 429.387L414.702 387.887H423.049L439.331 429.387H429.574L417.112 394.941H420.462L407.824 429.387H398.243ZM407.589 421.863V414.339H430.22V421.863H407.589ZM450.776 412.282V405.463H459.535C461.377 405.463 462.787 404.993 463.767 404.052C464.786 403.112 465.296 401.838 465.296 400.231C465.296 398.742 464.806 397.508 463.826 396.528C462.846 395.548 461.436 395.059 459.594 395.059H450.776V387.887H460.652C463.395 387.887 465.805 388.416 467.882 389.474C469.959 390.493 471.585 391.923 472.761 393.765C473.936 395.607 474.524 397.723 474.524 400.114C474.524 402.543 473.936 404.679 472.761 406.521C471.585 408.324 469.939 409.734 467.823 410.753C465.707 411.772 463.219 412.282 460.358 412.282H450.776ZM443.723 429.387V387.887H452.951V429.387H443.723ZM466.295 429.387L453.363 411.517L461.827 409.225L477.228 429.387H466.295Z" fill="black"/>
<mask id="mask24_2005_8" style="mask-type:luminance" maskUnits="userSpaceOnUse" x="-545" y="-256" width="1920" height="1080">
<path d="M1375 -256H-545V824H1375V-256Z" fill="white"/>
</mask>
<g mask="url(#mask24_2005_8)">
<path d="M413.977 495.15V500.17L436.637 488.43L413.977 495.15ZM413.977 509.65L432.837 498.73L413.977 504.52V509.65Z" fill="white"/>
</g>
<mask id="mask25_2005_8" style="mask-type:luminance" maskUnits="userSpaceOnUse" x="-545" y="-256" width="1920" height="1080">
<path d="M1375 -256H-545V824H1375V-256Z" fill="white"/>
</mask>
<g mask="url(#mask25_2005_8)">
<path d="M278.633 215.72C281.443 207.46 289.243 201.51 298.453 201.51C310.023 201.51 319.403 210.89 319.403 222.46C319.403 223.31 319.333 224.15 319.243 224.98C319.963 222.86 320.373 220.6 320.373 218.24C320.373 206.67 310.993 197.29 299.423 197.29C288.703 197.29 279.883 205.34 278.633 215.72Z" fill="black"/>
</g>
<mask id="mask26_2005_8" style="mask-type:luminance" maskUnits="userSpaceOnUse" x="-545" y="-256" width="1920" height="1080">
<path d="M1375 -256H-545V824H1375V-256Z" fill="white"/>
</mask>
<g mask="url(#mask26_2005_8)">
<path d="M514.281 215.72C517.091 207.46 524.891 201.51 534.101 201.51C545.671 201.51 555.051 210.89 555.051 222.46C555.051 223.31 554.981 224.15 554.881 224.98C555.601 222.86 556.011 220.6 556.011 218.24C556.011 206.67 546.631 197.29 535.061 197.29C524.341 197.29 515.521 205.34 514.281 215.72Z" fill="black"/>
</g>
</g>
<defs>
<linearGradient id="paint0_linear_2005_8" x1="66.3961" y1="306.122" x2="404.679" y2="306.122" gradientUnits="userSpaceOnUse">
<stop stop-color="#868686"/>
<stop offset="0.1706" stop-color="#101010"/>
<stop offset="0.1934"/>
<stop offset="0.2646" stop-color="#111111"/>
<stop offset="0.3221" stop-color="#191919"/>
<stop offset="0.4146" stop-color="#434343"/>
<stop offset="0.4917" stop-color="#5F5F5F"/>
<stop offset="0.5363" stop-color="#696969"/>
<stop offset="0.5739" stop-color="#626262"/>
<stop offset="0.6285" stop-color="#4F4F4F"/>
<stop offset="0.6933" stop-color="#2F2F2F"/>
<stop offset="0.7314" stop-color="#191919"/>
<stop offset="0.8104" stop-color="#040404"/>
<stop offset="0.8238"/>
<stop offset="0.8469" stop-color="#080808"/>
<stop offset="0.883" stop-color="#1E1E1E"/>
<stop offset="0.9223" stop-color="#3E3E3E"/>
<stop offset="1" stop-color="#8B8B8B"/>
</linearGradient>
<linearGradient id="paint1_linear_2005_8" x1="425.323" y1="306.122" x2="763.606" y2="306.122" gradientUnits="userSpaceOnUse">
<stop stop-color="#868686"/>
<stop offset="0.1706" stop-color="#101010"/>
<stop offset="0.1934"/>
<stop offset="0.2646" stop-color="#111111"/>
<stop offset="0.3221" stop-color="#191919"/>
<stop offset="0.4146" stop-color="#434343"/>
<stop offset="0.4917" stop-color="#5F5F5F"/>
<stop offset="0.5363" stop-color="#696969"/>
<stop offset="0.5739" stop-color="#626262"/>
<stop offset="0.6285" stop-color="#4F4F4F"/>
<stop offset="0.6933" stop-color="#2F2F2F"/>
<stop offset="0.7314" stop-color="#191919"/>
<stop offset="0.8104" stop-color="#040404"/>
<stop offset="0.8238"/>
<stop offset="0.8469" stop-color="#080808"/>
<stop offset="0.883" stop-color="#1E1E1E"/>
<stop offset="0.9223" stop-color="#3E3E3E"/>
<stop offset="1" stop-color="#8B8B8B"/>
</linearGradient>
<clipPath id="clip0_2005_8">
<rect width="894" height="581" fill="white"/>
</clipPath>
</defs>
</svg>
